<svg xmlns="http://www.w3.org/2000/svg" width="2200" height="1000" viewBox="0 0 2200 1000">
<defs>
<linearGradient id="bg" x1="0" x2="1"><stop offset="0" stop-color="#f3f5f7"/><stop offset="1" stop-color="#c9d0d8"/></linearGradient>
<linearGradient id="desk" x1="0" x2="1"><stop offset="0" stop-color="#dfe4ea"/><stop offset="1" stop-color="#f8f9fb"/></linearGradient>
<linearGradient id="metal" x1="0" x2="1"><stop offset="0" stop-color="#f8f9fa"/><stop offset=".34" stop-color="#bfc7d1"/><stop offset=".64" stop-color="#ffffff"/><stop offset="1" stop-color="#d2d8e0"/></linearGradient>
<filter id="shadow"><feDropShadow dx="0" dy="30" stdDeviation="38" flood-color="#101216" flood-opacity=".20"/></filter>
<filter id="blur"><feGaussianBlur stdDeviation="18"/></filter>
</defs>
<rect width="2200" height="1000" fill="url(#bg)"/>
<rect y="690" width="2200" height="310" fill="url(#desk)" opacity=".94"/>
<rect x="0" y="0" width="520" height="1000" fill="#111318" opacity=".08"/>
<polygon points="1120,0 1240,0 940,1000 820,1000" fill="#fff" opacity=".34"/>
<polygon points="1330,0 1430,0 1120,1000 1030,1000" fill="#fff" opacity=".22"/>
<polygon points="1540,0 1620,0 1330,1000 1260,1000" fill="#fff" opacity=".14"/>
<ellipse cx="1120" cy="742" rx="520" ry="86" fill="#1b2028" opacity=".13" filter="url(#blur)"/>

<g opacity=".78">
<rect x="1050" y="280" width="360" height="230" rx="30" fill="#ffffff" opacity=".72"/>
<rect x="1100" y="330" width="250" height="18" rx="9" fill="#111318" opacity=".20"/>
<rect x="1100" y="380" width="190" height="18" rx="9" fill="#111318" opacity=".15"/>
<rect x="1100" y="430" width="135" height="18" rx="9" fill="#111318" opacity=".12"/>
</g>
<g opacity=".82"><rect x="1370" y="645" width="96" height="78" rx="18" fill="#fff"/><path d="M1462 663 C1515 661 1518 712 1460 711" stroke="#fff" stroke-width="15" fill="none"/><rect x="1535" y="608" width="140" height="100" rx="18" fill="#d9dee5" opacity=".70"/><circle cx="1595" cy="572" r="34" fill="#6d7d68"/><rect x="1589" y="602" width="10" height="82" fill="#60675f"/></g>
</svg>