<svg xmlns="http://www.w3.org/2000/svg" width="1600" height="1000" viewBox="0 0 1600 1000">
<defs>
<linearGradient id="bg" x1="0" x2="1"><stop offset="0" stop-color="#eef2f1"/><stop offset="1" stop-color="#d9dfdd"/></linearGradient>
<linearGradient id="table" x1="0" x2="1"><stop offset="0" stop-color="#8b6142"/><stop offset="1" stop-color="#c49a72"/></linearGradient>
<filter id="shadow" x="-20%" y="-20%" width="140%" height="140%"><feDropShadow dx="0" dy="24" stdDeviation="24" flood-color="#3a2115" flood-opacity=".26"/></filter>
<filter id="soft"><feGaussianBlur stdDeviation="12"/></filter>
</defs>
<rect width="1600" height="1000" fill="url(#bg)"/>
<polygon points="0,0 620,0 220,1000 0,1000" fill="#ffffff" opacity=".34"/>
<polygon points="690,0 790,0 420,1000 310,1000" fill="#ffffff" opacity=".28"/>
<rect y="650" width="1600" height="350" fill="url(#table)"/>
<ellipse cx="770" cy="790" rx="410" ry="70" fill="#3d2115" opacity=".18" filter="url(#soft)"/>
<g filter="url(#shadow)">
<rect x="500" y="300" width="430" height="470" rx="46" fill="#f7f4ee"/>
<rect x="550" y="355" width="330" height="188" rx="28" fill="#171717"/>
<rect x="585" y="390" width="260" height="118" rx="18" fill="#2f2823"/>
<circle cx="715" cy="449" r="38" fill="#d8b184"/>
<rect x="610" y="596" width="210" height="92" rx="22" fill="#2a211b"/>
<rect x="655" y="620" width="120" height="38" rx="19" fill="#c9a37a"/>
<rect x="475" y="365" width="42" height="335" rx="20" fill="#171717"/>
</g>
<g>
<ellipse cx="1048" cy="754" rx="86" ry="22" fill="#3d2115" opacity=".18"/>
<rect x="990" y="645" width="116" height="102" rx="22" fill="#faf7f0"/>
<path d="M1100 675 C1165 670 1165 730 1100 726" fill="none" stroke="#faf7f0" stroke-width="18"/>
<ellipse cx="1048" cy="646" rx="58" ry="15" fill="#e8ddd0"/>
</g>
<rect x="1120" y="604" width="190" height="132" rx="12" fill="#efe6da" opacity=".72"/>
<rect x="1140" y="626" width="150" height="10" rx="5" fill="#9c8067" opacity=".6"/>
<rect x="1140" y="650" width="120" height="10" rx="5" fill="#9c8067" opacity=".45"/>
<circle cx="1185" cy="575" r="38" fill="#667b55" opacity=".78"/>
<rect x="1180" y="600" width="14" height="80" fill="#6b5a38"/>
<text x="88" y="875" fill="#fff8ef" font-family="Arial" font-size="46" font-weight="700" opacity=".78">Clean Morning Office</text>
<text x="90" y="925" fill="#fff8ef" font-family="Arial" font-size="24" opacity=".7">DR.COFFEE · F15 Product Scene</text>
</svg>