<svg xmlns="http://www.w3.org/2000/svg" width="1600" height="900" viewBox="0 0 1600 900">
<defs>
<linearGradient id="bg" x1="0" x2="1"><stop offset="0" stop-color="#efefed"/><stop offset="1" stop-color="#d7d1c6"/></linearGradient>
<linearGradient id="table" x1="0" x2="1"><stop offset="0" stop-color="#f4f5f6"/><stop offset="1" stop-color="#d8d2c7"/></linearGradient>
<filter id="sd"><feDropShadow dx="0" dy="20" stdDeviation="24" flood-color="#000" flood-opacity=".22"/></filter>
</defs>
<rect width="1600" height="900" fill="url(#bg)"/>
<rect x="0" y="620" width="1600" height="280" fill="url(#table)"/><rect x="0" y="0" width="1600" height="900" fill="#ffffff" opacity=".10"/>
<polygon points="1040,0 1140,0 890,900 780,900" fill="#fff" opacity=".16"/>
<polygon points="1160,0 1260,0 1010,900 900,900" fill="#fff" opacity=".13"/>
<polygon points="1280,0 1380,0 1130,900 1020,900" fill="#fff" opacity=".09"/>
<g filter="url(#sd)">
<rect x="620" y="250" width="350" height="360" rx="36" fill="#f3f4f5"/>
<rect x="680" y="300" width="210" height="160" rx="22" fill="#16181d"/>
<rect x="720" y="332" width="130" height="96" rx="14" fill="#302822"/>
<circle cx="785" cy="380" r="26" fill="#b89b74"/>
<rect x="710" y="500" width="150" height="64" rx="14" fill="#201b17"/>
<rect x="742" y="522" width="86" height="22" rx="11" fill="#b89b74"/>
<rect x="600" y="300" width="48" height="286" rx="18" fill="#14161a"/>
<rect x="705" y="604" width="180" height="18" rx="9" fill="#d0d5db"/>
</g>
<g opacity=".92">
<rect x="1065" y="604" width="88" height="70" rx="16" fill="#f2f2f2"/>
<path d="M1151 620 C1194 620 1198 662 1150 662" stroke="#f2f2f2" stroke-width="14" fill="none"/>
<rect x="1186" y="576" width="130" height="82" rx="16" fill="#d3c9bd" opacity=".65"/>
<circle cx="1236" cy="548" r="28" fill="#728261" opacity=".9"/>
<rect x="1229" y="572" width="9" height="66" fill="#6c5940"/>
<rect x="1208" y="596" width="84" height="5" rx="3" fill="#8f8174"/>
<rect x="1208" y="614" width="70" height="5" rx="3" fill="#8f8174" opacity=".7"/>
</g>
<text x="62" y="94" font-family="Arial" font-size="24" fill="#ffffff" opacity=".88">2026.07.02 · Good Morning</text>
<text x="62" y="164" font-family="Arial" font-size="82" font-weight="700" fill="#ffffff">Clean Morning Office</text>
<text x="62" y="214" font-family="Arial" font-size="34" fill="#ffffff" opacity=".82">先让空间干净，产品才会显得高级。</text>
<text x="1360" y="844" text-anchor="end" font-family="Arial" font-size="32" fill="#ffffff" opacity=".9">Dr.Coffee F15</text>
</svg>