<svg xmlns="http://www.w3.org/2000/svg" width="1800" height="1000" viewBox="0 0 1800 1000">
<defs>
<linearGradient id="bg" x1="0" x2="1"><stop offset="0" stop-color="#e9ecef"/><stop offset="1" stop-color="#bfc5ce"/></linearGradient>
<linearGradient id="desk" x1="0" x2="1"><stop offset="0" stop-color="#171a20"/><stop offset="1" stop-color="#7e8792"/></linearGradient>
<linearGradient id="metal" x1="0" x2="1"><stop offset="0" stop-color="#ffffff"/><stop offset=".42" stop-color="#cbd2db"/><stop offset=".72" stop-color="#f7f8fa"/><stop offset="1" stop-color="#d8dde4"/></linearGradient>
<filter id="sd"><feDropShadow dx="0" dy="28" stdDeviation="34" flood-color="#12151a" flood-opacity=".25"/></filter>
</defs>
<rect width="1800" height="1000" fill="url(#bg)"/>
<rect y="690" width="1800" height="310" fill="url(#desk)"/>
<rect x="0" y="0" width="350" height="1000" fill="#101216" opacity=".22"/>
<polygon points="1040,0 1140,0 860,1000 760,1000" fill="#fff" opacity=".35"/>
<polygon points="1210,0 1290,0 1010,1000 940,1000" fill="#fff" opacity=".22"/>
<polygon points="1390,0 1450,0 1190,1000 1130,1000" fill="#fff" opacity=".14"/>
<ellipse cx="900" cy="765" rx="390" ry="70" fill="#05070a" opacity=".18"/>
<g filter="url(#sd)">
<rect x="695" y="275" width="410" height="440" rx="44" fill="url(#metal)"/>
<rect x="760" y="345" width="270" height="175" rx="28" fill="#111319"/>
<rect x="812" y="390" width="166" height="84" rx="16" fill="#25282d"/>
<circle cx="895" cy="432" r="30" fill="#bda47c"/>
<rect x="795" y="570" width="200" height="72" rx="18" fill="#1b1d22"/>
<rect x="840" y="598" width="110" height="18" rx="9" fill="#bda47c"/>
<rect x="665" y="345" width="58" height="320" rx="22" fill="#111319"/>
<rect x="800" y="710" width="210" height="22" rx="11" fill="#e7ebf0"/>
</g>
<g opacity=".92">
<rect x="1270" y="695" width="96" height="78" rx="18" fill="#f2f3f4"/>
<path d="M1362 712 C1410 710 1412 758 1360 758" stroke="#f2f3f4" stroke-width="14" fill="none"/>
<rect x="1430" y="653" width="136" height="92" rx="18" fill="#d9dee5" opacity=".72"/>
<circle cx="1488" cy="618" r="31" fill="#6e7c68"/>
<rect x="1482" y="646" width="9" height="72" fill="#5f665b"/>
</g>
</svg>