<svg xmlns="http://www.w3.org/2000/svg" width="2200" height="1000" viewBox="0 0 2200 1000">
<defs>
<linearGradient id="bg" x1="0" x2="1"><stop offset="0" stop-color="#f3f5f7"/><stop offset="1" stop-color="#c9d0d8"/></linearGradient>
<linearGradient id="desk" x1="0" x2="1"><stop offset="0" stop-color="#dfe4ea"/><stop offset="1" stop-color="#f8f9fb"/></linearGradient>
<linearGradient id="metal" x1="0" x2="1"><stop offset="0" stop-color="#f8f9fa"/><stop offset=".34" stop-color="#bfc7d1"/><stop offset=".64" stop-color="#ffffff"/><stop offset="1" stop-color="#d2d8e0"/></linearGradient>
<filter id="shadow"><feDropShadow dx="0" dy="30" stdDeviation="38" flood-color="#101216" flood-opacity=".20"/></filter>
<filter id="blur"><feGaussianBlur stdDeviation="18"/></filter>
</defs>
<rect width="2200" height="1000" fill="url(#bg)"/>
<rect y="690" width="2200" height="310" fill="url(#desk)" opacity=".94"/>
<rect x="0" y="0" width="520" height="1000" fill="#111318" opacity=".08"/>
<polygon points="1120,0 1240,0 940,1000 820,1000" fill="#fff" opacity=".34"/>
<polygon points="1330,0 1430,0 1120,1000 1030,1000" fill="#fff" opacity=".22"/>
<polygon points="1540,0 1620,0 1330,1000 1260,1000" fill="#fff" opacity=".14"/>
<ellipse cx="1120" cy="742" rx="520" ry="86" fill="#1b2028" opacity=".13" filter="url(#blur)"/>

<g filter="url(#shadow)">
<rect x="1120" y="255" width="390" height="340" rx="34" fill="url(#metal)"/>
<rect x="1175" y="305" width="270" height="165" rx="24" fill="#111318"/>
<rect x="1238" y="352" width="145" height="78" rx="14" fill="#2b3037"/>
<circle cx="1310" cy="391" r="25" fill="#c0a77c"/>
<rect x="1215" y="505" width="180" height="58" rx="16" fill="#1b1e23"/>
<rect x="1258" y="527" width="96" height="14" rx="7" fill="#c0a77c"/>
<rect x="1086" y="305" width="60" height="250" rx="20" fill="#111318"/>
</g>
<g opacity=".82"><rect x="1370" y="645" width="96" height="78" rx="18" fill="#fff"/><path d="M1462 663 C1515 661 1518 712 1460 711" stroke="#fff" stroke-width="15" fill="none"/><rect x="1535" y="608" width="140" height="100" rx="18" fill="#d9dee5" opacity=".70"/><circle cx="1595" cy="572" r="34" fill="#6d7d68"/><rect x="1589" y="602" width="10" height="82" fill="#60675f"/></g>
</svg>