<svg xmlns="http://www.w3.org/2000/svg" width="1800" height="980" viewBox="0 0 1800 980">
<defs>
<linearGradient id="bg" x1="0" x2="1"><stop offset="0" stop-color="#f4f6f8"/><stop offset="1" stop-color="#c8d0da"/></linearGradient>
<linearGradient id="desk" x1="0" x2="1"><stop offset="0" stop-color="#d8dde4"/><stop offset="1" stop-color="#f8f9fb"/></linearGradient>
<linearGradient id="metal" x1="0" x2="1"><stop offset="0" stop-color="#f8f9fa"/><stop offset=".35" stop-color="#bfc7d1"/><stop offset=".62" stop-color="#ffffff"/><stop offset="1" stop-color="#d2d8e0"/></linearGradient>
<filter id="sd"><feDropShadow dx="0" dy="26" stdDeviation="36" flood-color="#101216" flood-opacity=".20"/></filter>
<filter id="blur"><feGaussianBlur stdDeviation="14"/></filter>
</defs>
<rect width="1800" height="980" fill="url(#bg)"/>
<rect y="680" width="1800" height="300" fill="url(#desk)" opacity=".92"/>
<rect x="0" y="0" width="420" height="980" fill="#111318" opacity=".12"/>
<polygon points="1010,0 1120,0 820,980 710,980" fill="#fff" opacity=".34"/>
<polygon points="1190,0 1270,0 970,980 900,980" fill="#fff" opacity=".22"/>
<polygon points="1370,0 1435,0 1150,980 1090,980" fill="#fff" opacity=".14"/>
<ellipse cx="1010" cy="730" rx="470" ry="78" fill="#1b2028" opacity=".13" filter="url(#blur)"/>

<g filter="url(#sd)">
<rect x="920" y="250" width="360" height="310" rx="26" fill="url(#metal)"/>
<rect x="966" y="292" width="252" height="150" rx="18" fill="#111318"/>
<rect x="1028" y="334" width="128" height="70" rx="10" fill="#2b3037"/>
<circle cx="1092" cy="370" r="24" fill="#c0a77c"/>
<rect x="1010" y="478" width="160" height="52" rx="14" fill="#1b1e23"/>
<rect x="1045" y="498" width="88" height="12" rx="6" fill="#c0a77c"/>
<rect x="890" y="292" width="54" height="230" rx="18" fill="#111318"/>
<rect x="1030" y="560" width="150" height="16" rx="8" fill="#edf1f5"/>
</g>
<g opacity=".78"><rect x="1380" y="652" width="100" height="78" rx="18" fill="#ffffff"/><path d="M1476 670 C1530 668 1532 718 1474 718" stroke="#ffffff" stroke-width="15" fill="none"/><rect x="1540" y="612" width="138" height="96" rx="18" fill="#d9dee5" opacity=".72"/><circle cx="1596" cy="578" r="32" fill="#6d7d68"/><rect x="1590" y="606" width="10" height="76" fill="#60675f"/></g>
<text x="72" y="118" font-family="Arial" font-size="18" letter-spacing="6" fill="#111318" opacity=".55">AESTHETIC REFERENCE</text>
<text x="72" y="188" font-family="Arial" font-size="64" font-weight="700" fill="#111318" opacity=".86">JURA</text>
</svg>